<svg xmlns="http://www.w3.org/2000/svg" width="41" height="41" viewBox="0 0 41 41">
    <g fill="none" transform="translate(.8 .8)">
        <path fill="#9B9DA0" d="M13.799 32.461L38.324 18.39 38.324 15.927 13.799 29.92 1.538 22.9 1.538 25.362 13.799 32.461 13.799 32.461 13.799 32.461 13.799 32.461z"/>
        <path fill="#9B9DA0" d="M13.799 28.095L38.324 14.024 38.324 11.562 13.799 25.554 1.538 18.534 1.538 20.996 13.799 28.095 13.799 28.095 13.799 28.095 13.799 28.095z"/>
        <path fill="#9B9DA0" d="M13.799 25.554L38.324 11.562 26.059 4.615 1.538 18.551z"/>
        <path fill="#FFF" d="M26.059 6.205L4.604 18.294l9.306 5.213 21.46-12.09-9.311-5.212zm-12.15 16.123l-7.206-4.034 19.36-10.915 7.207 4.038-19.36 10.91z"/>
        <ellipse cx="20.285" cy="14.565" fill="#FFF" rx="4.022" ry="2.24"/>
        <ellipse cx="26.508" cy="11.243" fill="#FFF" rx="1.739" ry="1"/>
        <ellipse cx="13.799" cy="18.364" fill="#FFF" rx="1.739" ry="1"/>
        <path fill="#9B9DA0" d="M13.799 36.827L38.324 22.756 38.324 20.293 13.799 34.286 1.538 27.266 1.538 29.728 13.799 36.827 13.799 36.827 13.799 36.827 13.799 36.827z"/>
    </g>
</svg>