

<svg xmlns="http://www.w3.org/2000/svg" width="41" height="41" viewBox="0 0 41 41">
    <g fill="none">
        <path fill="#9B9DA0" d="M12.34 8.214c.246.713.91 1.192 1.652 1.192h4.498c.742 0 1.406-.48 1.652-1.192.235-.682.973-2.207 1.546-2.69.502-.426.737-1.086.613-1.721-.12-.625-.557-1.12-1.167-1.32-1.816-.603-3.427-.4-4.66.584-.22.177-.517.177-.738 0-1.231-.984-2.841-1.187-4.66-.584-.609.201-1.046.695-1.167 1.32-.123.636.112 1.295.614 1.72.648.55 1.641 2.182 1.817 2.69zM20.625 10.617c0-.334-.272-.606-.606-.606-.112 0-.212.04-.302.093-.09-.054-.19-.093-.303-.093h-7.263c-.335 0-.606.272-.606.606 0 .334.271.605.606.605h7.263v.605h-6.658c-.334 0-.605.271-.605.606 0 .334.27.605.605.605h7.218c.542.451 1.21.71 1.924.71.808 0 1.569-.315 2.14-.887.237-.237.237-.62 0-.856-.236-.237-.619-.237-.855 0-.684.684-1.87.685-2.558.008v-1.396zM31.52 21.512c-.624 0-1.367.036-2.117.122-.815-1.493-1.89-2.777-3.247-3.816l-4.36-2.963c-.72-.553-1.857-1.212-3.175-1.212h-4.707c-1.165 0-2.31.397-3.208 1.103L6.42 17.868c-4.465 3.51-5.878 9.662-3.36 14.628.917 1.807 2.448 3.99 4.54 4.132.165.011.33.017.498.017h11.778c.889 1.105 2.249 1.816 3.774 1.816 1.754 0 3.29-.941 4.14-2.342 1.08.336 2.407.526 3.729.526 2.91 0 6.053-.925 6.053-2.421v-3.33h-.048c.03-.097.048-.198.048-.302v-6.961c0-1.673-3.805-2.119-6.053-2.119z" transform="translate(.8 .8)"/>
        <path fill="#FFF" d="M36.365 32.25l.003 1.93c-.155.375-1.992 1.254-4.848 1.254-1.149 0-2.292-.153-3.232-.427v-.004c.06-.196.103-.398.137-.604l.022-.147c.027-.209.047-.419.047-.634 0-.157-.009-.312-.024-.467-.006-.055-.015-.11-.022-.164-.01-.078-.018-.157-.032-.234.918.17 1.985.26 3.104.26 1.447 0 3.538-.185 4.845-.762zm0-3.835l.003 2.133c-.142.345-1.706 1.112-4.174 1.235-.221.008-.436.02-.675.02-1.333 0-2.65-.206-3.656-.565l-.012-.018c-.071-.125-.147-.247-.229-.364-.012-.018-.026-.034-.038-.051-.076-.106-.154-.21-.238-.31l-.079-.086c-.074-.084-.15-.167-.23-.245-.04-.041-.085-.077-.127-.117-.07-.064-.14-.128-.212-.188l-.021-.018v-1.005l.001-.42c.031.017.068.03.1.047.1.049.201.096.308.142l.168.067c.105.041.213.08.324.118.059.02.117.04.176.058.128.04.26.077.394.113l.14.038c.184.046.371.088.564.126l.122.022c.154.029.31.055.47.079l.204.028c.136.018.273.034.411.049l.218.021c.143.013.287.022.43.03.065.004.129.01.193.012.207.01.414.015.62.015.205 0 .412-.006.619-.015l.196-.011c.142-.009.284-.018.426-.03l.223-.022c.136-.014.27-.03.405-.049l.21-.028c.156-.023.31-.05.462-.078l.13-.023c.19-.038.378-.08.56-.125l.15-.041c.13-.035.26-.071.385-.11l.179-.06c.11-.038.218-.077.323-.118.056-.021.113-.044.167-.067.109-.046.212-.094.312-.144.032-.016.068-.029.098-.045zm0-3.43l.004 1.93c-.156.376-1.993 1.255-4.849 1.255-2.847 0-4.68-.872-4.84-1.207l.002-1.974.049.02c.145.061.296.12.457.172l.026.009c.165.053.338.1.516.145.058.015.118.028.177.041.13.03.26.058.394.084.065.012.129.025.194.036.147.026.295.05.445.07l.14.022c.196.026.392.05.586.068l.146.013c.15.013.297.025.444.035l.187.011c.136.008.268.014.398.019l.164.006c.178.005.351.008.514.008.163 0 .336-.003.514-.008l.166-.006c.13-.005.261-.01.396-.019l.19-.011c.147-.01.295-.022.444-.036l.144-.013c.195-.02.39-.041.586-.068.048-.007.095-.015.143-.021.15-.021.297-.045.443-.071l.195-.036c.134-.026.265-.054.395-.085.06-.013.12-.026.177-.04.181-.046.358-.095.526-.149l.024-.009c.158-.052.307-.11.45-.17l.053-.02zm-4.848-2.262c2.86 0 4.46.59 4.8.902-.013.013-.024.026-.041.04-.024.018-.052.038-.084.059-.04.025-.089.052-.141.078-.043.022-.088.045-.14.067-.063.029-.138.057-.215.086-.062.023-.124.046-.194.07-.089.029-.19.058-.293.086-.08.023-.158.046-.247.067-.115.029-.244.055-.373.08-.098.02-.19.041-.296.06-.145.026-.307.047-.467.07-.11.014-.212.031-.33.045-.19.021-.4.037-.61.052-.106.008-.203.018-.314.025-.33.018-.68.03-1.054.03-.373 0-.723-.012-1.054-.03-.111-.006-.208-.017-.314-.025-.21-.016-.42-.031-.61-.052-.117-.014-.22-.03-.33-.046-.16-.022-.322-.043-.467-.069-.105-.019-.198-.04-.295-.06-.13-.026-.259-.052-.374-.08-.088-.021-.166-.044-.247-.067-.102-.028-.203-.057-.292-.086-.07-.023-.133-.047-.195-.07-.076-.029-.152-.057-.215-.086-.052-.022-.096-.045-.14-.067-.052-.027-.1-.053-.14-.078-.032-.02-.06-.04-.084-.06-.017-.012-.026-.024-.038-.036l.02-.019c.023-.018.055-.04.087-.06.049-.032.11-.066.182-.102.04-.02.078-.04.124-.06l.158-.064c.065-.025.137-.05.212-.076.055-.018.107-.037.168-.055.136-.041.284-.082.447-.121.075-.018.162-.035.244-.052.098-.021.2-.042.306-.06.119-.022.244-.042.373-.061.683-.103 1.499-.175 2.473-.175zM14.572 17.88c-3.88 0-8.474 4.922-8.474 9.08 0 .334.27.605.605.605.334 0 .605-.271.605-.605 0-3.457 4.073-7.87 7.264-7.87.334 0 .605-.27.605-.604 0-.335-.271-.606-.605-.606zM23.651 37.25c-1.988 0-3.606-1.607-3.63-3.59 0-.046.002-.093.004-.14.002-.067.005-.133.01-.199.004-.055.011-.11.018-.165.007-.057.015-.112.025-.168.027-.157.062-.312.11-.463.005-.017.012-.032.018-.047.05-.152.112-.3.183-.444l.02-.041c.326-.64.84-1.182 1.465-1.538l.007-.005c.141-.08.29-.148.442-.208.039-.016.079-.03.118-.044.135-.048.271-.09.412-.12l.057-.015c.175-.036.35-.055.526-.065.033-.002.066-.005.1-.005.179-.006.357 0 .532.02l.03.005c.185.023.368.06.549.112l.008.001c.186.054.368.124.546.208.163.078.322.164.471.264l.024.017c.022.014.041.03.062.045.1.072.196.149.289.23l.066.06c.092.086.18.176.264.27l.025.028c.193.224.359.472.492.737.03.06.061.122.089.184.046.106.086.213.121.322l.009.023c.035.11.063.221.088.333.001.01.004.018.006.026.023.112.04.224.053.337l.005.03c.012.124.02.248.02.373 0 .128-.008.256-.021.383-.002.019-.006.036-.009.055-.013.11-.03.219-.053.326l-.01.036c-.025.115-.056.228-.094.34l-.005.015c-.04.118-.086.234-.138.348-.575 1.253-1.838 2.129-3.304 2.129z" transform="translate(.8 .8)"/>
    </g>
</svg>