
<svg xmlns="http://www.w3.org/2000/svg" width="42" height="42" viewBox="0 0 42 42">
    <g fill="none" fill-rule="evenodd">
        <path stroke="#9B9DA0" stroke-linecap="round" stroke-width="2.93" d="M25.632 36.1l-8.062-4.247c-.403-.202-.806-.202-1.21 0L8.298 36.1" transform="translate(3.64 -.36)"/>
        <path fill="#9B9DA0" fill-rule="nonzero" d="M26.318 21.275l-.148.114c-.04.023-.058.09-.07.364l1.675 8.557c.274 1.501-1.126 2.487-2.535 1.868l-7.808-4.275c-.197-.108-.36-.108-.557 0L9.16 32.116c-1.198.983-2.908-.265-2.627-1.801l1.478-8.443c0-.218-.105-.486-.206-.597L1.54 14.61c-1.138-.935-.608-2.792.848-3.11l8.818-1.227c.17 0 .316-.091.398-.271l3.899-8.132c.585-1.28 2.533-1.28 3.113-.01l3.909 8.152c.077.17.224.261.473.267l8.781 1.23c1.4.306 1.933 2.13.837 3.074l-6.297 6.692z" transform="translate(3.64 -.36)"/>
        <path fill="#FFF" fill-rule="nonzero" d="M14.078 14.985c-.235 0-.413-.067-.536-.201-.122-.134-.183-.294-.183-.48 0-.176.06-.329.177-.458.117-.13.298-.195.542-.195h5.02c.235 0 .414.067.536.202.122.134.183.294.183.48 0 .166-.059.317-.176.45-.118.135-.299.202-.543.202h-.61c-.299 0-.54-.004-.726-.013-.186-.01-.287-.014-.305-.014 0 .009-.003.016-.007.02-.005.005-.007.012-.007.021.154.084.3.195.44.334.141.139.256.31.347.514h.868c.235 0 .414.067.536.202.122.134.183.294.183.48 0 .166-.059.317-.176.45-.118.135-.299.202-.543.202h-.705c-.046.417-.152.77-.32 1.057-.166.287-.368.523-.603.708-.235.186-.486.327-.753.424-.267.098-.513.165-.74.202l2.497 2.335c.09.093.172.201.244.326.073.126.109.262.109.41 0 .25-.082.454-.244.612-.163.158-.376.236-.638.236-.199 0-.378-.053-.536-.16-.158-.106-.305-.224-.44-.354l-2.89-2.78c-.172-.166-.317-.333-.435-.5-.117-.167-.176-.343-.176-.528 0-.269.079-.477.237-.626.159-.148.364-.222.618-.222h.081c.226 0 .448-.018.665-.056.217-.037.416-.1.597-.187.18-.088.339-.206.475-.355.135-.148.235-.328.298-.542h-2.36c-.236 0-.414-.067-.537-.201-.122-.134-.183-.294-.183-.48 0-.176.06-.329.177-.458.117-.13.298-.195.542-.195h2.293c-.262-.574-.845-.862-1.75-.862h-.543z" transform="translate(3.64 -.36)"/>
    </g>
</svg>