
<svg xmlns="http://www.w3.org/2000/svg" width="41" height="41" viewBox="0 0 41 41">
    <g fill="none" transform="translate(.8 .8)">
        <path fill="#9B9DA0" d="M21.747 10.968l11.58 13.685c3.02-1.2 6.115 1.294 6.189 4.736.101 1.3-.32 2.585-1.169 3.573-.85.988-2.058 1.597-3.358 1.69-3.494.043-5.8-4.147-4.115-7.673L20.979 15.4c-.495-.58-.738-1.334-.677-2.094.061-.76.422-1.465 1.003-1.959l.442-.379zM34.8 26.4c-1.546 0-2.8 1.433-2.8 3.2 0 1.767 1.254 3.2 2.8 3.2 1.546 0 2.8-1.433 2.8-3.2 0-1.767-1.254-3.2-2.8-3.2z"/>
        <g>
            <path fill="#9B9DA0" d="M34.421.358C34.205.135 33.911.007 33.6 0h-4.063c.001.133-.057.26-.158.347-.095.103-.229.16-.368.158-.067.011-.134.011-.2 0-.064-.026-.122-.065-.169-.116-.103-.102-.16-.243-.158-.389H.874C.634.002.419.147.326.368.22.604.28.882.474 1.053c.406.261.667.697.705 1.179C1.179 3.284 0 3.284 0 4.422c0 1.136 1.168 1.052 1.168 2.2C1.168 7.767 0 7.662 0 8.767c0 1.106 1.179 1.053 1.179 2.19S0 12.053 0 13.148c0 1.094 1.168 1.052 1.179 2.2-.033.48-.286.918-.684 1.189-.202.158-.278.428-.19.668.09.24.323.396.58.384h27.6c-.016-.065-.016-.134 0-.2.022-.065.062-.123.115-.168.148-.152.373-.197.568-.116.127.056.228.158.285.284.015.066.015.135 0 .2h4.126c.314.004.615-.122.833-.347.22-.224.336-.529.325-.842V1.19c.006-.308-.107-.606-.316-.832zm-5.41 15.537c-.291 0-.527-.236-.527-.527 0-.29.236-.526.527-.526.29 0 .526.236.526.526 0 .291-.236.527-.526.527zm0-2.19c-.219.005-.417-.124-.504-.324-.086-.2-.043-.433.11-.588.152-.156.384-.204.586-.121.202.082.334.278.334.496-.006.287-.24.516-.526.516v.021zm0-2.2c-.291 0-.527-.235-.527-.526 0-.29.236-.526.527-.526.29 0 .526.235.526.526 0 .29-.236.526-.526.526zm0-2.2c-.291 0-.527-.235-.527-.526 0-.29.236-.526.527-.526.29 0 .526.235.526.526 0 .29-.236.526-.526.526zm0-2.19c-.291 0-.527-.235-.527-.526 0-.29.236-.526.527-.526.29 0 .526.236.526.526 0 .291-.236.527-.526.527zm0-2.2c-.291 0-.527-.235-.527-.526 0-.29.236-.526.527-.526.29 0 .526.236.526.526 0 .291-.236.527-.526.527zm0-2.2c-.291 0-.527-.235-.527-.526 0-.29.236-.526.527-.526.29 0 .526.236.526.526 0 .291-.236.527-.526.527z" transform="translate(0 5)"/>
            <path fill="#FFF" d="M8.789 12.547L6.758 12.547 6.758 6.716 4.937 6.716 4.937 5.053 10.611 5.053 10.611 6.716 8.789 6.716zM16.274 12.547l-.369-1.4h-2.431l-.38 1.4h-2.22l2.442-7.526h2.695l2.473 7.526h-2.21zm-.79-3.073l-.316-1.232c-.084-.274-.168-.62-.273-1.053-.106-.431-.158-.736-.221-.873 0 .168-.085.452-.18.852-.094.4-.294 1.137-.6 2.306h1.59zM26.053 12.547L23.705 12.547 22.242 10.211 20.8 12.547 18.516 12.547 21.053 8.716 18.663 5.053 20.905 5.053 22.253 7.368 23.558 5.053 25.874 5.053 23.495 8.874z" transform="translate(0 5)"/>
        </g>
        <path fill="#9B9DA0" d="M36.295 10.832l.442.379c1.207 1.028 1.358 2.838.337 4.052L27.2 26.937c1.684 3.484-.6 7.695-4.105 7.695-2.706-.202-4.736-2.558-4.537-5.264.031-3.547 3.116-6.042 6.158-4.852l11.579-13.684zM23.2 26.24c-1.546 0-2.8 1.433-2.8 3.2 0 1.767 1.254 3.2 2.8 3.2 1.546 0 2.8-1.433 2.8-3.2 0-1.767-1.254-3.2-2.8-3.2z"/>
        <circle cx="29.011" cy="21.8" r="1" fill="#FFF"/>
    </g>
</svg>