<svg xmlns="http://www.w3.org/2000/svg" width="41" height="33" viewBox="0 0 41 33">
    <g fill="#9B9DA0">
        <path d="M33.792 0c3.05 0 5.497 2.36 5.497 5.347 0 2.988-2.485 5.385-5.497 5.385s-5.459-2.36-5.459-5.348c0-2.987 2.41-5.384 5.46-5.384zm1.337 3.102h-2.591c-.126 0-.22.032-.28.096-.061.064-.091.14-.091.226 0 .092.031.17.094.237.063.066.155.1.277.1h.28c.467 0 .768.141.903.425h-1.183c-.126 0-.22.032-.28.096-.061.064-.091.14-.091.226 0 .092.031.17.094.237.063.066.155.1.277.1h1.218c-.032.105-.084.194-.154.267-.07.073-.151.132-.245.175-.093.043-.196.074-.308.093-.112.018-.226.027-.343.027h-.042c-.13 0-.237.037-.319.11-.081.073-.122.176-.122.308 0 .092.03.179.09.261.061.082.136.165.225.247l1.491 1.372c.07.064.146.122.228.175.082.053.174.079.277.079.135 0 .245-.039.329-.117.084-.077.126-.178.126-.302 0-.073-.019-.14-.056-.202-.038-.062-.08-.115-.126-.161l-1.289-1.153c.117-.018.244-.051.382-.1.138-.047.267-.117.389-.208.12-.092.225-.208.311-.35.087-.142.141-.316.165-.522h.364c.126 0 .22-.033.28-.099.06-.066.091-.14.091-.223 0-.091-.032-.17-.095-.237-.063-.066-.155-.1-.276-.1h-.448c-.047-.1-.107-.184-.179-.253-.072-.068-.148-.123-.227-.165 0-.004 0-.008.003-.01.002-.002.004-.006.004-.01l.157.007c.096.004.22.007.375.007h.315c.126 0 .22-.034.28-.1.06-.066.091-.14.091-.223 0-.091-.032-.17-.095-.236-.063-.067-.155-.1-.276-.1z" transform="translate(.8)"/>
        <path stroke="#9B9DA0" stroke-width="1.917" d="M27.207 9.802c-.176-.259-.561-.296-.807-.111l-5.679 4.757-7.326-3.208c-.175-.074-.386-.037-.526.074l-7.852 5.9c-.245.185-.316.553-.14.811.105.185.28.259.455.259.106 0 .21-.037.316-.111l7.607-5.716 7.361 3.208c.176.074.42.037.561-.074l5.924-4.941c.246-.185.28-.59.106-.848z" transform="translate(.8)"/>
        <path d="M39.341 31.644h-2.786V14.569c0-.332-.263-.59-.602-.59h-5.534c-.339 0-.603.258-.603.59v17.075h-2.032V20.469c0-.331-.264-.59-.603-.59H21.61c-.338 0-.602.259-.602.59v11.175h-2.033v-12.06c0-.332-.263-.59-.602-.59h-5.534c-.34 0-.603.258-.603.59v12.06h-2.033V23.05c0-.332-.263-.59-.602-.59H4.028c-.339 0-.602.258-.602.59v8.593H.602c-.338 0-.602.258-.602.59 0 .332.264.59.602.59h38.702c.338 0 .602-.258.602-.59.038-.332-.226-.59-.565-.59z" transform="translate(.8)"/>
    </g>
</svg>
